PathFileType	4	(X/Y/Z)	/Users/itak/Documents/Research/Walk-IL/dataset/trc/00360_00011.trc
DataRate	CameraRate	NumFrames	NumMarkers	Units	OrigDataRate	OrigDataStartFrame	OrigNumFrames
100.000000	100.000000	4	56	mm	100.000000	306	409
Frame#	Time	RPSI			LPSI			L3			STRN			T10			C7			CLAV			RBAK			LBAK			LSHO			LUPA			LAEL			LAOL			LWTS			LWPS			LFRA			LIFD			LHPS			LHTS			RSHO			RUPA			RAEL			RAOL			RWTS			RWPS			RFRA			RIFD			RHTS			RHPS			RBHD			LFHD			RFHD			LBHD			LHIP			RHIP			RASI			LASI			LKNE			LTHI			LANK			LTIP			LTOE			LMT1			LMT5			LHEE			RKNE			RTHI			RTIP			RTOE			RMT1			RMT5			RANK			RHEE			*53			*54			*55			
		X1	Y1	Z1	X2	Y2	Z2	X3	Y3	Z3	X4	Y4	Z4	X5	Y5	Z5	X6	Y6	Z6	X7	Y7	Z7	X8	Y8	Z8	X9	Y9	Z9	X10	Y10	Z10	X11	Y11	Z11	X12	Y12	Z12	X13	Y13	Z13	X14	Y14	Z14	X15	Y15	Z15	X16	Y16	Z16	X17	Y17	Z17	X18	Y18	Z18	X19	Y19	Z19	X20	Y20	Z20	X21	Y21	Z21	X22	Y22	Z22	X23	Y23	Z23	X24	Y24	Z24	X25	Y25	Z25	X26	Y26	Z26	X27	Y27	Z27	X28	Y28	Z28	X29	Y29	Z29	X30	Y30	Z30	X31	Y31	Z31	X32	Y32	Z32	X33	Y33	Z33	X34	Y34	Z34	X35	Y35	Z35	X36	Y36	Z36	X37	Y37	Z37	X38	Y38	Z38	X39	Y39	Z39	X40	Y40	Z40	X41	Y41	Z41	X42	Y42	Z42	X43	Y43	Z43	X44	Y44	Z44	X45	Y45	Z45	X46	Y46	Z46	X47	Y47	Z47	X48	Y48	Z48	X49	Y49	Z49	X50	Y50	Z50	X51	Y51	Z51	X52	Y52	Z52	X53	Y53	Z53	X54	Y54	Z54	X55	Y55	Z55	X56	Y56	Z56	

307	3.06	596.0970458984375	973.3075561523438	-449.6805419921875	467.7822570800781	974.6605224609375	-437.7390441894531	537.8469848632812	1022.835632324219	-443.9751586914062	516.62158203125	1224.571166992188	-655.2840576171875	531.4571533203125	1139.927490234375	-420.6978454589844	516.6026000976562	1390.889282226562	-441.0642395019531	516.1271362304688	1347.533203125	-602.968017578125	585.187255859375	1248.742431640625	-407.3818359375	414.7065124511719	1352.705322265625	-429.2623596191406	354.3133239746094	1375.962768554688	-511.4571838378906	290.0389404296875	1253.9580078125	-505.9850158691406	270.3643798828125	1056.57763671875	-559.470458984375	330.4163513183594	1030.771362304688	-503.6349487304688	300.9950866699219	837.2278442382812	-703.6236572265625	247.1295471191406	819.7151489257812	-662.9201049804688	259.611328125	957.3841552734375	-593.8636474609375	296.9821472167969	679.7406005859375	-739.3348999023438	253.8036956787109	750.2332763671875	-672.6849975585938	283.3302001953125	763.4725341796875	-727.4517211914062	677.6201171875	1382.81982421875	-505.287353515625	740.5859985351562	1318.8173828125	-497.9002990722656	777.6195678710938	1051.264038085938	-504.0190124511719	688.8472900390625	1044.377197265625	-473.6927795410156	739.8338623046875	827.3735961914062	-624.309814453125	800.9202270507812	809.6215209960938	-581.6591186523438	788.3846435546875	984.3822021484375	-528.6689453125	746.892333984375	652.4852905273438	-641.0187377929688	754.5449829101562	726.97509765625	-653.6968994140625	798.4204711914062	726.8185424804688	-600.0493774414062	600.0337524414062	1602.140869140625	-481.1576232910156	468.3914489746094	1621.792724609375	-641.5009765625	569.477783203125	1621.505615234375	-639.5968627929688	457.86083984375	1596.445190429688	-456.7865600585938	355.5755615234375	919.3056640625	-513.5606689453125	708.6803588867188	920.70361328125	-536.2803344726562	644.9503173828125	945.2923583984375	-638.9366455078125	404.6082458496094	945.353759765625	-638.4032592773438	332.65771484375	465.4736938476562	-532.7644653320312	329.9122619628906	603.197265625	-545.3699951171875	311.8143005371094	42.70974349975586	-463.3081359863281	307.8839721679688	252.8309326171875	-492.8717956542969	361.9728393554688	40.10646438598633	-670.6942138671875	406.72216796875	31.81965637207031	-603.8809814453125	292.8456420898438	37.23170852661133	-587.6297607421875	381.4134826660156	40.49977493286133	-432.70068359375	670.1533203125	456.0359497070312	-533.5203857421875	690.6763916015625	709.874755859375	-603.064208984375	665.1221313476562	341.1225280761719	-532.6681518554688	590.536865234375	40.04345321655273	-661.5663452148438	551.9954223632812	39.33788681030273	-605.7979125976562	663.5723876953125	27.69244766235352	-568.267578125	649.4251708984375	38.82944488525391	-468.3141784667969	601.0708618164062	46.06975173950195	-419.6603088378906	nan	nan	nan	nan	nan	nan	nan	nan	nan	
308	3.07	595.0946655273438	973.4071655273438	-450.0297241210938	466.7626342773438	974.705322265625	-438.0922546386719	536.8065185546875	1022.930236816406	-444.3696899414062	515.6064453125	1224.520629882812	-655.8331298828125	530.1502685546875	1140.121704101562	-421.2805786132812	515.3162841796875	1391.010131835938	-441.7268981933594	515.0336303710938	1347.5234375	-603.6080322265625	583.8775634765625	1248.890625	-407.9073181152344	413.3721923828125	1352.827026367188	-430.0186462402344	353.1997680664062	1375.983154296875	-512.283447265625	288.9749755859375	1253.882080078125	-506.8163146972656	269.8259887695312	1056.23583984375	-559.6547241210938	330.0963134765625	1030.843017578125	-503.7942504882812	300.4858703613281	835.31005859375	-701.7632446289062	246.6936492919922	818.3767700195312	-660.7462158203125	259.2488708496094	956.8777465820312	-593.2843017578125	296.6507263183594	677.2037353515625	-735.0161743164062	253.4177551269531	748.7201538085938	-669.5119018554688	282.9365844726562	761.12060546875	-724.4739990234375	676.3704833984375	1382.955200195312	-505.6819458007812	739.30859375	1318.971069335938	-498.1215515136719	776.4044189453125	1051.382568359375	-504.2379455566406	687.54248046875	1044.544921875	-474.2170715332031	738.8617553710938	828.6675415039062	-626.1632080078125	799.0753784179688	809.7653198242188	-582.6797485351562	787.1268310546875	984.5241088867188	-529.01416015625	745.5242919921875	654.9754638671875	-646.1782836914062	753.6174926757812	728.87451171875	-657.0279541015625	796.2734985351562	727.3452758789062	-602.4996337890625	599.0216064453125	1602.07568359375	-481.7171020507812	467.7055053710938	1621.895141601562	-642.3099975585938	568.8097534179688	1621.480102539062	-640.2245483398438	456.81494140625	1596.574340820312	-457.6171875	354.6301574707031	919.2940673828125	-514.0032348632812	707.68359375	920.7675170898438	-536.5146484375	644.055419921875	945.2894287109375	-639.216796875	403.714599609375	945.2739868164062	-638.8275756835938	332.2536010742188	465.4017639160156	-532.877685546875	329.3936767578125	603.1027221679688	-545.6038818359375	311.8699951171875	42.69960021972656	-463.3009033203125	307.4410400390625	252.8134765625	-492.9688110351562	361.9899597167969	40.10631942749023	-670.7072143554688	406.7412109375	31.81172370910645	-603.8872680664062	292.8786010742188	37.24210357666016	-587.6198120117188	381.4758911132812	40.44964981079102	-432.6877746582031	669.5845336914062	456.0302124023438	-533.5985717773438	689.842041015625	709.8778686523438	-603.3397827148438	664.728759765625	341.2428588867188	-532.7635498046875	590.5274658203125	40.02411270141602	-661.58154296875	551.982421875	39.31966018676758	-605.8103637695312	663.5736083984375	27.70595550537109	-568.26708984375	649.3292236328125	38.85558700561523	-468.289794921875	601.0360107421875	46.17156600952148	-419.7144775390625	nan	nan	nan	nan	nan	nan	nan	nan	nan	
309	3.08	594.12060546875	973.5218505859375	-450.3893127441406	465.7817993164062	974.770751953125	-438.4229125976562	535.7976684570312	1023.015380859375	-444.7531433105469	514.58544921875	1224.474487304688	-656.3744506835938	528.924072265625	1140.326904296875	-421.8596801757812	514.064697265625	1391.140869140625	-442.3857727050781	513.9390258789062	1347.51953125	-604.2435302734375	582.6159057617188	1249.037963867188	-408.4857482910156	412.110595703125	1352.94580078125	-430.7355041503906	352.0924987792969	1376.000610351562	-513.0518188476562	287.9508361816406	1253.786499023438	-507.5392150878906	269.2847900390625	1055.880737304688	-559.6943359375	329.8044128417969	1030.896362304688	-503.8444213867188	299.966064453125	833.4740600585938	-699.8201293945312	246.2497253417969	817.083251953125	-658.4799194335938	258.894775390625	956.3619995117188	-592.5639038085938	296.2467651367188	674.7935791015625	-730.71533203125	252.99951171875	747.2842407226562	-666.29150390625	282.4929809570312	758.8794555664062	-721.4420166015625	675.1509399414062	1383.112060546875	-506.1298217773438	738.0714721679688	1319.144287109375	-498.4153747558594	775.1666259765625	1051.504516601562	-504.4975891113281	686.228271484375	1044.731689453125	-474.7124633789062	737.861328125	829.8783569335938	-627.8355712890625	797.2020874023438	809.851318359375	-583.5394897460938	785.8314208984375	984.6555786132812	-529.3526000976562	744.0674438476562	657.3046875	-650.9583129882812	752.6694946289062	730.68994140625	-660.0796508789062	794.0894165039062	727.8035888671875	-604.709716796875	598.0314331054688	1602.014404296875	-482.2745361328125	467.0223083496094	1622.013061523438	-643.0971069335938	568.1442260742188	1621.471557617188	-640.8406982421875	455.7980041503906	1596.710571289062	-458.4252014160156	353.6976013183594	919.3070678710938	-514.3984375	706.6740112304688	920.832275390625	-536.7708740234375	643.147705078125	945.2874755859375	-639.518798828125	402.8018188476562	945.2158813476562	-639.2230834960938	331.7964172363281	465.3388977050781	-533.0341186523438	328.8347778320312	603.0169677734375	-545.8296508789062	311.9420166015625	42.69051361083984	-463.2939758300781	306.9200439453125	252.8219299316406	-493.1240844726562	362.0070495605469	40.10284042358398	-670.7276000976562	406.7583618164062	31.80214691162109	-603.8953857421875	292.9112243652344	37.25218200683594	-587.6124877929688	381.5404357910156	40.40958404541016	-432.6762084960938	669.0259399414062	456.0622253417969	-533.683349609375	688.9949340820312	709.8818359375	-603.6372680664062	664.3477783203125	341.3828125	-532.876708984375	590.5192260742188	40.00413131713867	-661.5963745117188	551.9697875976562	39.30228424072266	-605.8224487304688	663.572998046875	27.72044944763184	-568.2665405273438	649.2435913085938	38.89679336547852	-468.2703247070312	601.0062866210938	46.27170944213867	-419.7694702148438	nan	nan	nan	nan	nan	nan	nan	nan	nan	
310	3.09	593.174072265625	973.6459350585938	-450.7544860839844	464.8371887207031	974.8568115234375	-438.73583984375	534.8197021484375	1023.088989257812	-445.1269226074219	513.5618286132812	1224.431030273438	-656.9072875976562	527.7756958007812	1140.538818359375	-422.4239807128906	512.8467407226562	1391.279663085938	-443.0397033691406	512.8480224609375	1347.52001953125	-604.8728637695312	581.4044189453125	1249.179809570312	-409.1014709472656	410.9245300292969	1353.061401367188	-431.4149169921875	350.99072265625	1376.015625	-513.7685546875	286.9639892578125	1253.673950195312	-508.1535339355469	268.7410278320312	1055.516235351562	-559.5855102539062	329.5345458984375	1030.93359375	-503.783935546875	299.4382934570312	831.7296142578125	-697.8038330078125	245.7977905273438	815.8422241210938	-656.1331176757812	258.5448913574219	955.8387451171875	-591.7030029296875	295.7741394042969	672.5267944335938	-726.4724731445312	252.5507659912109	745.9298706054688	-663.0453491210938	281.998779296875	756.7630004882812	-718.3771362304688	673.9663696289062	1383.278930664062	-506.6263122558594	736.8777465820312	1319.324584960938	-498.7822570800781	773.9041137695312	1051.622192382812	-504.8104858398438	684.9022216796875	1044.929565429688	-475.2026977539062	736.8170166015625	830.970703125	-629.3297729492188	795.318115234375	809.8868408203125	-584.2699584960938	784.4993896484375	984.7683715820312	-529.6963500976562	742.5087890625	659.3721313476562	-655.2460327148438	751.6738891601562	732.3550415039062	-662.8121948242188	791.8948974609375	728.1831665039062	-606.6657104492188	597.0632934570312	1601.957397460938	-482.8323669433594	466.3399353027344	1622.140625	-643.8638305664062	567.4745483398438	1621.475463867188	-641.4459228515625	454.8094482421875	1596.85205078125	-459.2118530273438	352.7787475585938	919.3408203125	-514.7474365234375	705.65185546875	920.8984375	-537.0452880859375	642.2273559570312	945.2868041992188	-639.8389892578125	401.8683471679688	945.1768798828125	-639.5897827148438	331.2900390625	465.2832641601562	-533.2257080078125	328.2377624511719	602.9368286132812	-546.0442504882812	312.0274658203125	42.68323135375977	-463.2876281738281	306.3500366210938	252.8468627929688	-493.325927734375	362.0239562988281	40.09565734863281	-670.7549438476562	406.7736206054688	31.7901725769043	-603.9053344726562	292.9436645507812	37.26226425170898	-587.6079711914062	381.6078186035156	40.37819671630859	-432.666259765625	668.4699096679688	456.1308898925781	-533.7752075195312	688.1351928710938	709.8871459960938	-603.952880859375	663.9747924804688	341.5392150878906	-533.0023803710938	590.5111083984375	39.98308181762695	-661.611328125	551.95703125	39.28562164306641	-605.834716796875	663.5695190429688	27.73590660095215	-568.265869140625	649.166015625	38.95086288452148	-468.254638671875	600.978271484375	46.36684036254883	-419.8224182128906	nan	nan	nan	nan	nan	nan	nan	nan	nan	
